<svg xmlns="http://www.w3.org/2000/svg" viewBox="0 0 920.88 633.33">
  <defs>
    <style>
      .a {
        fill: #19416a;
      }

      .b {
        font-size: 70px;
      }

      .b, .d, .e {
        fill: #fff;
      }

      .b, .e {
        font-family: SourceSansPro-Regular, Source Sans Pro;
      }

      .c {
        font-size: 50px;
        font-family: SourceSansPro-Bold, Source Sans Pro;
        font-weight: 700;
      }

      .e {
        font-size: 18px;
      }

      .f {
        letter-spacing: 0em;
      }

      .g {
        letter-spacing: 0em;
      }

      .h {
        letter-spacing: -0.01em;
      }

      .i {
        letter-spacing: -0.01em;
      }

      .j {
        letter-spacing: -0.02em;
      }

      .k {
        letter-spacing: -0.01em;
      }

      .l {
        letter-spacing: -0.01em;
      }

      .m {
        letter-spacing: 0.01em;
      }

      .n {
        letter-spacing: -0.02em;
      }

      .o {
        letter-spacing: -0.02em;
      }

      .p {
        letter-spacing: -0.02em;
      }

      .q {
        letter-spacing: 0em;
      }

      .r {
        letter-spacing: -0.03em;
      }

      .s {
        fill: #4091db;
      }

      .t {
        fill: none;
        stroke: #fff;
        stroke-miterlimit: 10;
      }

      .u {
        letter-spacing: 0em;
      }

      .v {
        letter-spacing: -0.01em;
      }

      .w {
        fill: #f2a83d;
      }

      .x {
        letter-spacing: -0.01em;
      }

      .y {
        letter-spacing: -0.01em;
      }

      .z {
        letter-spacing: -0.02em;
      }

      .aa {
        fill: #1b416a;
      }

      .ab {
        letter-spacing: 0em;
      }

      .ac {
        fill: #3f90db;
      }

      .ad {
        letter-spacing: -0.03em;
      }

      .ae {
        letter-spacing: -0.02em;
      }

      .af {
        letter-spacing: 0em;
      }

      .ag {
        letter-spacing: -0.01em;
      }

      .ah {
        fill: #f2a73f;
      }

      .ai {
        letter-spacing: -0.01em;
      }

      .aj {
        letter-spacing: 0.02em;
      }

      .ak {
        fill: #3e8fdb;
      }
    </style>
  </defs>
  <g>
    <polygon class="a" points="283.26 143.66 0 143.18 43.26 71.66 0 0.87 283.26 0.66 325.26 72.66 283.26 143.66"/>
    <text class="b" transform="translate(53.07 92.12)">1<tspan class="c" x="34.79" y="0"> </tspan></text>
    <rect class="d" x="94.23" y="40.38" width="1" height="64.38"/>
    <text class="e" transform="translate(114.8 36.05)">N<tspan class="f" x="11.65" y="0">e</tspan><tspan class="g" x="20.66" y="0">w </tspan><tspan class="h" x="37.19" y="0">t</tspan><tspan x="43.02" y="0">o the p</tspan><tspan class="i" x="94.77" y="0">r</tspan><tspan x="100.83" y="0">o</tspan><tspan class="j" x="110.59" y="0">c</tspan><tspan x="118.42" y="0">es</tspan><tspan class="k" x="134.89" y="0">s</tspan><tspan class="g" x="142.23" y="0">?</tspan><tspan x="0" y="21.6">B</tspan><tspan class="l" x="10.58" y="21.6">e</tspan><tspan x="19.33" y="21.6">gin with </tspan><tspan class="m" x="83.1" y="21.6">‘</tspan><tspan x="87.82" y="21.6">Wh</tspan><tspan class="h" x="111.76" y="21.6">a</tspan><tspan x="120.58" y="21.6">t is</tspan><tspan class="n" x="0" y="43.2">S</tspan><tspan class="j" x="9.18" y="43.2">t</tspan><tspan x="14.89" y="43.2">a</tspan><tspan class="o" x="23.96" y="43.2">k</tspan><tspan x="32.54" y="43.2">eholder </tspan><tspan x="0" y="64.8">En</tspan><tspan class="p" x="19.33" y="64.8">g</tspan><tspan class="q" x="28.12" y="64.8">a</tspan><tspan class="h" x="37.19" y="64.8">g</tspan><tspan x="46.01" y="64.8">ement and Why </tspan><tspan x="0" y="86.4">Do i</tspan><tspan class="r" x="28.85" y="86.4">t</tspan><tspan class="j" x="34.47" y="86.4">?</tspan><tspan class="g" x="41.74" y="86.4">’</tspan></text>
  </g>
  <g>
    <polygon class="s" points="579.52 143.15 297.82 142.96 341.07 71.44 297.82 0.65 579.52 0.56 622.43 71.44 579.52 143.15"/>
    <text class="b" transform="translate(354.32 93.06)">2</text>
    <line class="t" x1="395.97" y1="41.32" x2="395.97" y2="105.7"/>
    <text class="e" transform="translate(413.79 46.22)">Orient <tspan class="u" x="51.08" y="0">y</tspan><tspan x="59.42" y="0">ou</tspan><tspan class="u" x="78.96" y="0">r</tspan><tspan x="85.14" y="0">self </tspan><tspan class="h" x="115.05" y="0">t</tspan><tspan x="120.89" y="0">o the</tspan><tspan x="0" y="21.6">f</tspan><tspan class="n" x="5.26" y="21.6">r</tspan><tspan x="11.07" y="21.6">am</tspan><tspan class="f" x="35.06" y="21.6">e</tspan><tspan class="u" x="44.08" y="21.6">w</tspan><tspan x="56.93" y="21.6">ork on the</tspan><tspan class="h" x="0" y="43.2">‘</tspan><tspan x="4.23" y="43.2">Spe</tspan><tspan class="i" x="32.76" y="43.2">c</tspan><tspan x="40.79" y="43.2">trum of </tspan><tspan x="0" y="64.8">En</tspan><tspan class="p" x="19.33" y="64.8">g</tspan><tspan class="q" x="28.12" y="64.8">a</tspan><tspan class="h" x="37.19" y="64.8">g</tspan><tspan x="46.01" y="64.8">ement’ </tspan><tspan class="h" x="102.8" y="64.8">p</tspan><tspan x="112.54" y="64.8">a</tspan><tspan class="v" x="121.61" y="64.8">g</tspan><tspan x="130.43" y="64.8" xml:space="preserve">e  </tspan></text>
  </g>
  <g>
    <polygon class="w" points="920.79 164.61 850.39 206.49 776.79 164.52 776.79 142.78 598.63 142.74 640.5 71.44 598.63 0.43 920.88 0 920.79 164.61"/>
    <text class="b" transform="translate(669.29 92.1)">3</text>
    <line class="t" x1="710.95" y1="40.36" x2="710.95" y2="104.74"/>
    <text class="e" transform="translate(726.62 55.95)">Navi<tspan class="p" x="33.55" y="0">g</tspan><tspan class="h" x="42.34" y="0">at</tspan><tspan x="56.99" y="0">e </tspan><tspan class="x" x="69.52" y="0">t</tspan><tspan x="75.35" y="0">o ‘G</tspan><tspan class="y" x="104.29" y="0">e</tspan><tspan class="z" x="113.04" y="0">t</tspan><tspan x="118.76" y="0">ting </tspan><tspan class="n" x="0" y="21.6">S</tspan><tspan class="j" x="9.18" y="21.6">t</tspan><tspan x="14.89" y="21.6">ar</tspan><tspan class="h" x="30.21" y="21.6">t</tspan><tspan x="36.04" y="21.6" xml:space="preserve">ed’  &amp; </tspan><tspan class="j" x="81.2" y="21.6">c</tspan><tspan x="89.03" y="21.6">ondu</tspan><tspan class="l" x="128.41" y="21.6">c</tspan><tspan x="136.44" y="21.6">t a </tspan><tspan x="0" y="43.2">Situ</tspan><tspan class="h" x="29.92" y="43.2">a</tspan><tspan x="38.74" y="43.2">tion Analysis</tspan></text>
  </g>
  <g>
    <polygon class="aa" points="639.94 387.39 599.66 316.42 639.94 245.46 776.35 245.5 776.61 179.37 850.76 222.68 920.6 181.65 920.6 387.58 639.94 387.39"/>
    <text class="b" transform="translate(642.88 338.81)">4</text>
    <line class="t" x1="684.53" y1="287.06" x2="684.53" y2="351.44"/>
    <text class="e" transform="translate(700.2 302.65)">B<tspan class="l" x="10.58" y="0">r</tspan><tspan class="ab" x="16.65" y="0">o</tspan><tspan x="26.33" y="0">wse </tspan><tspan class="h" x="59.33" y="0">t</tspan><tspan x="65.16" y="0">echniques </tspan><tspan class="h" x="0" y="21.6">b</tspan><tspan x="9.7" y="21.6">ased on the l</tspan><tspan class="f" x="105.03" y="21.6">e</tspan><tspan class="ab" x="114.05" y="21.6">v</tspan><tspan x="122.38" y="21.6">el of </tspan><tspan x="0" y="43.2">en</tspan><tspan class="p" x="18.77" y="43.2">g</tspan><tspan x="27.56" y="43.2">a</tspan><tspan class="h" x="36.63" y="43.2">g</tspan><tspan x="45.45" y="43.2">ement needed</tspan></text>
  </g>
  <g>
    <polygon class="ac" points="341.61 387.47 622.29 387.33 580.24 316.05 622.23 245.65 341.56 245.21 298.64 316.24 341.61 387.47"/>
    <text class="b" transform="translate(340.79 338.46)">5</text>
    <line class="t" x1="382.45" y1="286.72" x2="382.45" y2="351.1"/>
    <text class="e" transform="translate(398.12 302.31)"><tspan class="ad">E</tspan><tspan x="8.93" y="0">xplo</tspan><tspan class="l" x="41.29" y="0">r</tspan><tspan x="47.36" y="0">e lessons l</tspan><tspan class="h" x="123.82" y="0">e</tspan><tspan x="132.5" y="0">arned </tspan><tspan x="0" y="21.6">f</tspan><tspan class="l" x="5.26" y="21.6">r</tspan><tspan x="11.32" y="21.6">om </tspan><tspan class="ae" x="39.6" y="21.6">o</tspan><tspan x="49.05" y="21.6">the</tspan><tspan class="af" x="73.85" y="21.6">r</tspan><tspan x="80.03" y="21.6">s on the </tspan><tspan x="0" y="43.2">‘Case </tspan><tspan class="n" x="43.9" y="43.2">S</tspan><tspan x="53.08" y="43.2">tudies</tspan></text>
  </g>
  <g>
    <polygon class="a" points="0.51 410.06 72.48 451.99 144.51 409.96 144.51 388.22 322.67 388.18 280.79 316.88 322.67 245.88 0.42 245.45 0.51 410.06"/>
    <text class="b" transform="translate(27.29 338.44)">6</text>
    <line class="t" x1="68.95" y1="286.7" x2="68.95" y2="351.08"/>
    <text class="e" transform="translate(84.61 300.59)">Need mo<tspan class="l" x="67.77" y="0">r</tspan><tspan x="73.83" y="0">e d</tspan><tspan class="l" x="96.35" y="0">e</tspan><tspan class="j" x="105.1" y="0">t</tspan><tspan x="110.81" y="0">ail?</tspan><tspan class="ad" x="0" y="21.6">E</tspan><tspan x="8.93" y="21.6">xplo</tspan><tspan class="l" x="41.29" y="21.6">r</tspan><tspan x="47.36" y="21.6">e </tspan><tspan class="j" x="59.89" y="21.6">c</tspan><tspan x="67.72" y="21.6">omp</tspan><tspan class="y" x="102.38" y="21.6">r</tspan><tspan x="108.45" y="21.6">ehensi</tspan><tspan class="af" x="157.91" y="21.6">v</tspan><tspan x="166.25" y="21.6">e </tspan><tspan x="0" y="43.2">guides and mo</tspan><tspan class="l" x="110.54" y="43.2">r</tspan><tspan x="116.6" y="43.2">e </tspan><tspan x="0" y="64.8">‘</tspan><tspan class="l" x="4.48" y="64.8">R</tspan><tspan x="14.54" y="64.8">esou</tspan><tspan class="l" x="50.56" y="64.8">r</tspan><tspan class="j" x="56.63" y="64.8">c</tspan><tspan x="64.46" y="64.8">e</tspan><tspan class="ag" x="73.39" y="64.8">s</tspan><tspan x="80.73" y="64.8">’</tspan></text>
  </g>
  <g>
    <polygon class="ah" points="279.48 633.15 320.28 563.41 279.48 491.22 144.44 491.12 144.13 427.2 72.41 470.12 0.2 427.28 0.34 633.33 279.48 633.15"/>
    <text class="b" transform="translate(28.27 579.07)">7</text>
    <line class="t" x1="69.93" y1="527.33" x2="69.93" y2="591.71"/>
    <text class="e" transform="translate(87.73 541.64)">Kn<tspan class="ab" x="20.27" y="0">o</tspan><tspan x="29.95" y="0">w wh</tspan><tspan class="h" x="69.19" y="0">a</tspan><tspan x="78.01" y="0">t </tspan><tspan class="af" x="87.69" y="0">y</tspan><tspan x="96.03" y="0">ou</tspan><tspan class="ai" x="115.58" y="0">’</tspan><tspan class="l" x="119.82" y="0">r</tspan><tspan x="125.89" y="0">e looking </tspan><tspan class="l" x="0" y="21.6">f</tspan><tspan x="5.08" y="21.6">or? </tspan><tspan class="ab" x="32.33" y="21.6">U</tspan><tspan x="43.86" y="21.6">se the </tspan><tspan class="h" x="92.34" y="21.6">‘</tspan><tspan x="96.57" y="21.6">S</tspan><tspan class="h" x="106.18" y="21.6">e</tspan><tspan x="114.85" y="21.6">a</tspan><tspan class="l" x="123.93" y="21.6">r</tspan><tspan x="129.99" y="21.6">ch </tspan><tspan class="p" x="0" y="43.2">W</tspan><tspan x="13.86" y="43.2">ayfinde</tspan><tspan class="aj" x="69.79" y="43.2">r</tspan><tspan x="76.36" y="43.2">’ </tspan><tspan class="l" x="84.44" y="43.2">f</tspan><tspan class="h" x="89.51" y="43.2">ea</tspan><tspan x="107.01" y="43.2">tu</tspan><tspan class="l" x="122.88" y="43.2">r</tspan><tspan x="128.95" y="43.2">e</tspan></text>
  </g>
  <g>
    <polygon class="ak" points="578.02 632.97 297.34 632.83 339.95 562.8 297.39 491.14 578.07 490.71 621.08 563.18 578.02 632.97"/>
    <text class="b" transform="translate(355.89 579.03)">8</text>
    <line class="t" x1="397.55" y1="527.29" x2="397.55" y2="591.67"/>
    <text class="e" transform="translate(414.22 539.96)"><tspan class="n">S</tspan><tspan x="9.18" y="0">tuck or need </tspan><tspan x="0" y="21.6">additional ans</tspan><tspan class="ab" x="107.32" y="21.6">w</tspan><tspan x="120.17" y="21.6">e</tspan><tspan class="af" x="129.09" y="21.6">r</tspan><tspan class="ag" x="135.27" y="21.6">s</tspan><tspan x="142.61" y="21.6">? </tspan><tspan x="0" y="43.2">Seek advi</tspan><tspan class="j" x="71.87" y="43.2">c</tspan><tspan x="79.7" y="43.2">e on the </tspan><tspan x="0" y="64.8">‘Find an </tspan><tspan class="ad" x="63.75" y="64.8">E</tspan><tspan x="72.68" y="64.8">xpert’ </tspan><tspan class="h" x="120.04" y="64.8">p</tspan><tspan x="129.78" y="64.8">a</tspan><tspan class="h" x="138.85" y="64.8">g</tspan><tspan x="147.67" y="64.8">e</tspan></text>
  </g>
</svg>
