

<!-- Generator: Adobe Illustrator 25.4.1, SVG Export Plug-In . SVG Version: 6.00 Build 0)  -->
<svg version="1.1" id="Layer_1" xmlns="http://www.w3.org/2000/svg" xmlns:xlink="http://www.w3.org/1999/xlink" x="0px" y="0px"
	 viewBox="0 0 951 705.9" style="enable-background:new 0 0 951 705.9;" xml:space="preserve">
	 <defs>
		<style type="text/css">


			.step {
			  transform: translateX(0px);
				filter: drop-shadow(5px 5px 10px rgb(0 0 0 / 0.1));
			  transition: .3s ease-in transform;
			}

			.step:hover {
			  transform: translateX(4px);
				<!-- filter: brightness(0.93); -->
			}

			.dark-blue {
				fill:#19416A;
				transition: all 0.5s ease;
			}
			.text {
			fill:#FFFFFF;
			}

			.light-blue {
			fill: #4091DB;
			transition: all 0.5s ease;
			}

			.gold {
			fill:#F2A83D;
			transition: all 0.5s ease;
			}

		</style>
	</defs>
	<a class="step" href="#">
		<polygon class="dark-blue" points="296.5,186.2 13.2,185.7 56.5,114.2 13.2,43.4 296.5,43.2 338.5,115.2 		"/>
		<path class="text" d="M71.8,134.6v-4.8h10.2V97h-8.1v-3.7c2.1-0.4,3.8-0.8,5.4-1.4c1.5-0.5,2.9-1.2,4.1-1.9h4.4v39.9H97v4.8H71.8z"/>
		<rect x="107.5" y="82.9" class="text" width="1" height="64.4"/>
		<text x="125" y="80" text-anchor="" fill="white" font-size="16px" width="200" height="200" font-family="Source Sans Pro" dy=".3em">New to the process? </text>
		<text x="125" y="100" text-anchor="" fill="white" font-size="16px" width="200" height="200" font-family="Source Sans Pro" dy=".3em">Begin with ‘What is </text>
		<text x="125" y="120" text-anchor="" fill="white" font-size="16px" width="200" height="200" font-family="Source Sans Pro" dy=".3em"> Stakeholder </text>
		<text x="125" y="140" text-anchor="" fill="white" font-size="16px" width="200" height="200" font-family="Source Sans Pro" dy=".3em">Engagement and </text>
		<text x="125" y="160" text-anchor="" fill="white" font-size="16px" width="200" height="200" font-family="Source Sans Pro" dy=".3em">Why Do it?’</text>
		Sorry, your browser does not support inline SVG.
	</a>

	<a class="step" href="#">
		<polygon class="light-blue" points="592.8,185.7 311.1,185.5 354.3,114 311.1,43.2 592.8,43.1 635.7,114 		"/>
		<path class="text" d="M370.4,135.6v-3.4c3.4-3.4,6.3-6.4,9-9.1c2.6-2.7,4.8-5.2,6.6-7.5c1.8-2.3,3.1-4.4,4.1-6.4
				c0.9-1.9,1.4-3.8,1.4-5.6c0-2.6-0.7-4.7-2.1-6.3c-1.4-1.6-3.5-2.5-6.4-2.5c-1.9,0-3.6,0.5-5.2,1.6c-1.6,1-3,2.3-4.3,3.8l-3.3-3.3
				c1.9-2.1,3.9-3.7,6-4.9c2.1-1.2,4.6-1.9,7.6-1.9c4.2,0,7.4,1.2,9.8,3.6c2.4,2.4,3.6,5.6,3.6,9.6c0,2.1-0.5,4.2-1.4,6.3
				c-0.9,2.1-2.2,4.3-3.8,6.6c-1.6,2.3-3.5,4.6-5.7,7.1c-2.2,2.5-4.7,5.1-7.3,7.8c1.2-0.1,2.5-0.2,3.8-0.3c1.3-0.1,2.5-0.1,3.7-0.1
				h13v5H370.4z"/>
		<rect x="408.7" y="83.9" class="text" width="1" height="64.4"/>
		<text x="425" y="80" text-anchor="" fill="white" font-size="16px" width="200" height="200" font-family="Source Sans Pro" dy=".3em">Orient yourself to the </text>
		<text x="425" y="100" text-anchor="" fill="white" font-size="16px" width="200" height="200" font-family="Source Sans Pro" dy=".3em">framework on the </text>
		<text x="425" y="120" text-anchor="" fill="white" font-size="16px" width="200" height="200" font-family="Source Sans Pro" dy=".3em"> Stakeholder </text>
		<text x="425" y="140" text-anchor="" fill="white" font-size="16px" width="200" height="200" font-family="Source Sans Pro" dy=".3em">‘Spectrum of  </text>
		<text x="425" y="160" text-anchor="" fill="white" font-size="16px" width="200" height="200" font-family="Source Sans Pro" dy=".3em">Engagement’ page</text>
	</a>

	<a class="step" href="#">
		<polygon class="gold" points="934,207.1 863.6,249 790,207 790,185.3 611.9,185.3 653.7,114 611.9,43 934.1,42.5 		"/>
		<path class="text" d="M699.1,135.5c-1.8,0-3.4-0.2-4.9-0.5c-1.5-0.4-2.8-0.8-4-1.4c-1.2-0.6-2.3-1.2-3.3-2c-1-0.7-1.8-1.5-2.6-2.4
				l2.9-3.8c1.4,1.4,2.9,2.6,4.7,3.7c1.8,1.1,4,1.6,6.7,1.6c2.7,0,4.9-0.7,6.6-2.2s2.6-3.5,2.6-6c0-1.3-0.2-2.5-0.7-3.6
				c-0.5-1.1-1.3-2-2.4-2.8c-1.1-0.8-2.6-1.4-4.4-1.8s-4.1-0.6-6.7-0.6v-4.4c2.4,0,4.4-0.2,6-0.6c1.6-0.4,2.9-1,3.9-1.8
				c1-0.7,1.7-1.6,2.1-2.7c0.4-1,0.6-2.1,0.6-3.3c0-2.2-0.7-3.9-2.1-5.2c-1.4-1.3-3.3-1.9-5.6-1.9c-1.9,0-3.6,0.4-5.1,1.3
				c-1.6,0.8-3,1.9-4.4,3.3l-3.1-3.6c1.7-1.6,3.6-3,5.7-4c2.1-1.1,4.4-1.6,7.1-1.6c2,0,3.8,0.3,5.4,0.8c1.6,0.5,3,1.2,4.2,2.2
				c1.2,1,2.1,2.1,2.8,3.5c0.7,1.4,1,3,1,4.8c0,2.7-0.7,4.9-2.2,6.7c-1.5,1.7-3.5,3.1-5.9,4v0.3c1.4,0.3,2.6,0.8,3.8,1.4
				c1.2,0.6,2.2,1.4,3.1,2.4c0.9,1,1.6,2.1,2.1,3.3c0.5,1.3,0.7,2.7,0.7,4.2c0,2-0.4,3.7-1.2,5.3c-0.8,1.6-1.8,2.9-3.1,4
				c-1.3,1.1-2.9,1.9-4.7,2.5C703,135.2,701.1,135.5,699.1,135.5z"/>
		<rect x="723.7" y="82.9" class="text" width="1" height="64.4"/>
		<text x="745" y="95" text-anchor="" fill="white" font-size="16px" width="200" height="200" font-family="Source Sans Pro" dy=".3em">Navigate to ‘Getting </text>
		<text x="745" y="115" text-anchor="" fill="white" font-size="16px" width="200" height="200" font-family="Source Sans Pro" dy=".3em">Started’  and conduct a  </text>
		<text x="745" y="135" text-anchor="" fill="white" font-size="16px" width="200" height="200" font-family="Source Sans Pro" dy=".3em"> Situation Analysis </text>
	</a>

	<a class="step" href="#">
		<polygon class="dark-blue" points="653.2,429.9 612.9,358.9 653.2,288 789.6,288 789.9,221.9 864,265.2 933.8,224.2 933.8,430.1 "/>
		<path class="text" d="M677.4,381.3V369h-20.1v-3.8l19.1-28.6h6.4v27.7h6.1v4.6h-6.1v12.3H677.4z M663.4,364.4h14v-13
				c0-1.2,0-2.6,0.1-4.3c0.1-1.7,0.2-3.1,0.2-4.3h-0.3c-0.6,1.1-1.1,2.1-1.8,3.1c-0.6,1-1.2,2.1-1.9,3.1L663.4,364.4z"/>
		<rect x="700" y="328" class="text" width="1" height="64.4"/>
		<text x="715" y="340" text-anchor="" fill="white" font-size="16px" width="200" height="200" font-family="Source Sans Pro" dy=".3em">Browse techniques  </text>
		<text x="715" y="360" text-anchor="" fill="white" font-size="16px" width="200" height="200" font-family="Source Sans Pro" dy=".3em">based on the level of  </text>
		<text x="715" y="380" text-anchor="" fill="white" font-size="16px" width="200" height="200" font-family="Source Sans Pro" dy=".3em"> engagement needed </text>
	</a>

	<a class="step" href="#">
		<polygon class="light-blue" points="354.9,430 635.5,429.9 593.5,358.6 635.5,288.2 354.8,287.7 311.9,358.8 		"/>
		<path class="text" d="M370.4,381.8c-1.8,0-3.4-0.2-4.9-0.5c-1.5-0.3-2.8-0.8-4-1.4c-1.2-0.6-2.3-1.2-3.2-1.9
				c-1-0.7-1.8-1.5-2.6-2.3l2.8-3.8c1.3,1.4,2.9,2.5,4.7,3.6c1.8,1,4,1.5,6.6,1.5c1.4,0,2.6-0.2,3.8-0.7c1.2-0.5,2.2-1.2,3.1-2.1
				c0.9-0.9,1.6-2,2.1-3.2c0.5-1.3,0.8-2.7,0.8-4.2c0-3.1-0.9-5.5-2.6-7.2c-1.7-1.7-4-2.6-6.9-2.6c-1.5,0-2.9,0.2-4,0.7
				c-1.1,0.5-2.3,1.1-3.7,2l-3.1-2l1.5-21.5h22.3v5h-17.3l-1.2,13.2c1.1-0.6,2.1-1,3.2-1.3c1.1-0.3,2.3-0.5,3.6-0.5
				c1.9,0,3.7,0.3,5.4,0.8c1.7,0.6,3.1,1.4,4.4,2.6c1.3,1.1,2.3,2.6,3,4.3c0.7,1.8,1.1,3.8,1.1,6.3c0,2.4-0.4,4.6-1.3,6.4
				s-2,3.4-3.4,4.7c-1.4,1.3-3,2.3-4.8,2.9C374.3,381.5,372.4,381.8,370.4,381.8z"/>
		<rect x="395.2" y="329.2" class="text" width="1" height="64.4"/>
		<text x="415" y="340" text-anchor="" fill="white" font-size="16px" width="200" height="200" font-family="Source Sans Pro" dy=".3em">Explore lessons learned</text>
		<text x="415" y="360" text-anchor="" fill="white" font-size="16px" width="200" height="200" font-family="Source Sans Pro" dy=".3em">from others on the</text>
		<text x="415" y="380" text-anchor="" fill="white" font-size="16px" width="200" height="200" font-family="Source Sans Pro" dy=".3em"> ‘Case Studies’</text>
</a>

<a class="step" href="#">
		<polygon class="dark-blue" points="13.8,452.6 85.7,494.5 157.8,452.5 157.8,430.7 335.9,430.7 294,359.4 335.9,288.4 13.7,288 		"/>
		<path class="text" d="M59.3,381.8c-2.2,0-4.2-0.4-6.1-1.3c-1.9-0.9-3.5-2.2-4.9-4c-1.4-1.8-2.5-4-3.3-6.7
				c-0.8-2.7-1.2-5.8-1.2-9.4c0-4.5,0.5-8.3,1.4-11.4c0.9-3.1,2.2-5.7,3.8-7.7c1.6-2,3.4-3.4,5.4-4.3c2-0.9,4.2-1.4,6.4-1.4
				c2.4,0,4.5,0.5,6.3,1.4c1.8,0.9,3.3,2,4.5,3.4l-3.2,3.6c-0.9-1.1-2-1.9-3.3-2.6c-1.3-0.6-2.6-0.9-4-0.9c-1.5,0-3,0.3-4.4,1
				c-1.4,0.7-2.6,1.7-3.7,3.2c-1.1,1.5-1.9,3.4-2.6,5.8c-0.7,2.4-1,5.4-1.1,8.9c1.4-1.7,3-3.1,4.9-4.1c1.9-1,3.7-1.5,5.5-1.5
				c3.9,0,7,1.1,9.3,3.4c2.3,2.3,3.5,5.7,3.5,10.4c0,2.1-0.4,4.1-1.1,5.8c-0.7,1.8-1.7,3.3-2.9,4.5c-1.2,1.3-2.6,2.2-4.2,2.9
				C62.8,381.5,61.1,381.8,59.3,381.8z M59.3,377.3c1.1,0,2.1-0.2,3.1-0.7c0.9-0.5,1.8-1.1,2.5-2s1.2-1.9,1.6-3.1
				c0.4-1.2,0.6-2.5,0.6-4c0-2.9-0.7-5.2-2-6.9c-1.4-1.7-3.4-2.5-6.2-2.5c-1.4,0-3,0.5-4.7,1.4c-1.7,0.9-3.2,2.4-4.6,4.5
				c0.4,4.4,1.4,7.7,3,10C54.2,376.1,56.4,377.3,59.3,377.3z"/>
		<rect x="81.7" y="329.2" class="text" width="1" height="64.4"/>
		<text x="100" y="330" text-anchor="" fill="white" font-size="16px" width="200" height="200" font-family="Source Sans Pro" dy=".3em">Need more detail?</text>
		<text x="100" y="350" text-anchor="" fill="white" font-size="16px" width="200" height="200" font-family="Source Sans Pro" dy=".3em">Explore comprehensive</text>
		<text x="100" y="370" text-anchor="" fill="white" font-size="16px" width="200" height="200" font-family="Source Sans Pro" dy=".3em"> guides and more </text>
		<text x="100" y="390" text-anchor="" fill="white" font-size="16px" width="200" height="200" font-family="Source Sans Pro" dy=".3em"> ‘Resources’</text>
	</a>

	<a class="step" href="#">
		<polygon class="gold" points="292.7,675.7 333.5,605.9 292.7,533.7 157.7,533.6 157.4,469.7 85.7,512.6 13.4,469.8 13.6,675.9
			"/>
		<path class="text" d="M53.9,621.6c0.2-4.2,0.6-8,1.1-11.5c0.6-3.5,1.3-6.8,2.3-10c1-3.1,2.3-6.2,3.9-9.1c1.6-2.9,3.4-6,5.6-9H44.6
				v-5h28.8v3.6c-2.7,3.4-4.8,6.6-6.5,9.7c-1.7,3.1-3,6.2-4,9.4c-1,3.2-1.7,6.6-2.1,10.2c-0.4,3.6-0.8,7.5-0.9,11.9H53.9z"/>
				<rect x="82.7" y="569.9" class="text" width="1" height="64.4"/>
			<text x="100" y="580" text-anchor="" fill="white" font-size="16px" width="200" height="200" font-family="Source Sans Pro" dy=".3em">Know what you’re looking</text>
			<text x="100" y="600" text-anchor="" fill="white" font-size="16px" width="200" height="200" font-family="Source Sans Pro" dy=".3em">for? Use the ‘Search </text>
			<text x="100" y="620" text-anchor="" fill="white" font-size="16px" width="200" height="200" font-family="Source Sans Pro" dy=".3em"> Wayfinder’ feature </text>
	</a>

<a class="step" href="#">
		<polygon class="light-blue" points="591.3,675.5 310.6,675.4 353.2,605.3 310.6,533.7 591.3,533.2 634.3,605.7 		"/>
		<path class="text" d="M386.6,622.4c-2.1,0-4-0.3-5.8-0.9c-1.8-0.6-3.3-1.5-4.6-2.6c-1.3-1.1-2.3-2.4-3-3.9
				c-0.7-1.5-1.1-3.1-1.1-4.9c0-1.4,0.2-2.8,0.7-4c0.5-1.2,1.1-2.4,1.9-3.4c0.8-1,1.7-1.9,2.7-2.7c1-0.8,2-1.4,3.1-2v-0.3
				c-1.6-1.2-3.1-2.6-4.3-4.2s-1.9-3.7-1.9-6.1c0-1.7,0.3-3.3,1-4.7c0.7-1.4,1.5-2.6,2.7-3.6c1.1-1,2.5-1.8,4-2.3
				c1.5-0.6,3.2-0.8,5-0.8c2,0,3.7,0.3,5.2,0.9c1.5,0.6,2.9,1.4,4,2.5c1.1,1,1.9,2.3,2.5,3.8c0.6,1.5,0.9,3.1,0.9,4.8
				c0,1.2-0.2,2.3-0.6,3.4c-0.4,1.1-0.9,2.1-1.5,3c-0.6,0.9-1.2,1.8-2,2.5c-0.7,0.7-1.4,1.4-2.1,1.9v0.3c1,0.6,1.9,1.2,2.9,1.9
				c0.9,0.7,1.8,1.5,2.5,2.5c0.7,0.9,1.3,1.9,1.8,3.1c0.4,1.2,0.7,2.5,0.7,4c0,1.7-0.4,3.2-1,4.7c-0.7,1.4-1.7,2.7-2.9,3.8
				s-2.8,1.9-4.5,2.5C390.7,622.1,388.8,622.4,386.6,622.4z M386.8,618.1c2.6,0,4.7-0.7,6.3-2.2c1.6-1.4,2.4-3.3,2.4-5.7
				c0-1.4-0.3-2.7-1-3.7c-0.7-1-1.5-1.9-2.7-2.7c-1.1-0.8-2.4-1.5-3.9-2.1c-1.5-0.6-3-1.3-4.6-1.9c-1.8,1.2-3.3,2.6-4.4,4.2
				c-1.2,1.6-1.8,3.4-1.8,5.5c0,1.3,0.2,2.4,0.7,3.4c0.5,1,1.2,1.9,2,2.7c0.9,0.8,1.9,1.4,3,1.8
				C384.2,617.9,385.4,618.1,386.8,618.1z M389.8,597.2c1.5-1.4,2.6-2.8,3.5-4.3c0.8-1.5,1.2-3.1,1.2-4.7c0-2.2-0.7-4.1-2-5.6
				c-1.4-1.5-3.3-2.3-5.7-2.3c-2.1,0-3.8,0.7-5.2,2c-1.4,1.3-2,3.1-2,5.2c0,1.4,0.3,2.5,0.8,3.5c0.6,1,1.3,1.8,2.3,2.6
				c1,0.7,2.1,1.4,3.3,2C387.1,596.1,388.4,596.7,389.8,597.2z"/>
		<rect x="410.3" y="569.8" class="text" width="1" height="64.4"/>
		<text x="425" y="580" text-anchor="" fill="white" font-size="16px" width="200" height="200" font-family="Source Sans Pro" dy=".3em">Stuck or need</text>
		<text x="425" y="600" text-anchor="" fill="white" font-size="16px" width="200" height="200" font-family="Source Sans Pro" dy=".3em">additional answers?  </text>
		<text x="425" y="620" text-anchor="" fill="white" font-size="16px" width="200" height="200" font-family="Source Sans Pro" dy=".3em"> Seek advice on the  </text>
			<text x="425" y="640" text-anchor="" fill="white" font-size="16px" width="200" height="200" font-family="Source Sans Pro" dy=".3em"> Seek ‘Find an Expert’ page </text>
</a>

</svg>
